HIERARCHY
ROOT Pelvis
{
	OFFSET 0.000000 0.000000 0.000000
	CHANNELS 6 Xposition Yposition Zposition Zrotation Yrotation Xrotation 
	JOINT Left_hip
	{
		OFFSET 0.069463 -0.088608 -0.009542
		CHANNELS 3 Zrotation Yrotation Xrotation
		JOINT Left_knee
		{
			OFFSET 0.030639 -0.359740 -0.005288
			CHANNELS 3 Zrotation Yrotation Xrotation
			JOINT Left_ankle
			{
				OFFSET -0.011068 -0.376034 -0.042462
				CHANNELS 3 Zrotation Yrotation Xrotation
				JOINT Left_foot
				{
					OFFSET 0.023192 -0.053321 0.111332
					CHANNELS 3 Zrotation Yrotation Xrotation
					End Site
					{
						OFFSET 0.000000 0.000000 0.000000
					}
				}
			}
		}
	}
	JOINT Right_hip
	{
		OFFSET -0.067438 -0.088025 -0.006263
		CHANNELS 3 Zrotation Yrotation Xrotation
		JOINT Right_knee
		{
			OFFSET -0.035962 -0.366229 -0.008063
			CHANNELS 3 Zrotation Yrotation Xrotation
			JOINT Right_ankle
			{
				OFFSET 0.013608 -0.375719 -0.040481
				CHANNELS 3 Zrotation Yrotation Xrotation
				JOINT Right_foot
				{
					OFFSET -0.021034 -0.045527 0.114617
					CHANNELS 3 Zrotation Yrotation Xrotation
					End Site
					{
						OFFSET 0.000000 0.000000 0.000000
					}
				}
			}
		}
	}
	JOINT Spine1
	{
		OFFSET -0.002610 0.101823 -0.019986
		CHANNELS 3 Zrotation Yrotation Xrotation
		JOINT Spine2
		{
			OFFSET 0.004114 0.128714 -0.000938
			CHANNELS 3 Zrotation Yrotation Xrotation
			JOINT Spine3
			{
				OFFSET 0.002191 0.048470 0.027684
				CHANNELS 3 Zrotation Yrotation Xrotation
				JOINT Neck
				{
					OFFSET -0.002856 0.198873 -0.044022
					CHANNELS 3 Zrotation Yrotation Xrotation
					JOINT Head
					{
						OFFSET 0.002981 0.062960 0.049860
						CHANNELS 3 Zrotation Yrotation Xrotation
						End Site
						{
							OFFSET 0.000000 0.000000 0.000000
						}
					}
				}
				JOINT Left_collar
				{
					OFFSET 0.073708 0.112550 -0.033440
					CHANNELS 3 Zrotation Yrotation Xrotation
					JOINT Left_shoulder
					{
						OFFSET 0.083291 0.030786 -0.008013
						CHANNELS 3 Zrotation Yrotation Xrotation
						JOINT Left_elbow
						{
							OFFSET 0.245601 -0.011792 -0.027873
							CHANNELS 3 Zrotation Yrotation Xrotation
							JOINT Left_wrist
							{
								OFFSET 0.232258 0.008622 -0.000487
								CHANNELS 3 Zrotation Yrotation Xrotation
								JOINT Left_palm
								{
									OFFSET 0.077300 -0.009457 -0.012851
									CHANNELS 3 Zrotation Yrotation Xrotation
									End Site
									{
										OFFSET 0.000000 0.000000 0.000000
									}
								}
							}
						}
					}
				}
				JOINT Right_collar
				{
					OFFSET -0.075339 0.110574 -0.037874
					CHANNELS 3 Zrotation Yrotation Xrotation
					JOINT Right_shoulder
					{
						OFFSET -0.086522 0.031207 -0.009986
						CHANNELS 3 Zrotation Yrotation Xrotation
						JOINT Right_elbow
						{
							OFFSET -0.237313 -0.011478 -0.019859
							CHANNELS 3 Zrotation Yrotation Xrotation
							JOINT Right_wrist
							{
								OFFSET -0.237599 0.007976 -0.003742
								CHANNELS 3 Zrotation Yrotation Xrotation
								JOINT Right_palm
								{
									OFFSET -0.076920 -0.006943 -0.009920
									CHANNELS 3 Zrotation Yrotation Xrotation
									End Site
									{
										OFFSET 0.000000 0.000000 0.000000
									}
								}
							}
						}
					}
				}
			}
		}
	}
}
MOTION
Frames: 10
Frame Time: 0.100000
0.000000 0.000000 0.000000 167.933053 52.081207 -31.126623 3.455849 5.361377 19.917814 1.240305 -11.233779 -2.155120 5.949577 6.714638 -6.637684 -11.052563 9.122067 -1.108792 -2.160682 -5.269188 22.691821 -1.870812 1.437807 -2.549768 -8.798602 -8.123167 -9.373723 15.230577 -5.004232 11.412907 -0.422410 0.699452 4.687502 0.524827 -4.933719 7.754915 -0.803595 -3.434695 -0.925212 -0.489580 -19.509209 12.775953 -0.091121 -21.127480 3.092906 -31.221216 -0.419413 7.975328 -49.811800 -7.385850 7.739236 0.710670 -15.533723 16.435411 -15.083375 4.458714 -2.004571 -7.409189 -2.639460 -8.815268 32.698817 5.914435 4.554491 52.650783 2.452975 10.464962 -5.612548 11.170120 0.030922 10.072953 -4.913088 -1.316732 10.025218 8.487771 -3.214399 
0.000059 -0.000208 0.000864 167.717978 52.454693 -31.245799 3.525020 5.285694 19.928266 1.286035 -11.365329 -2.271088 5.808336 6.612728 -6.599939 -10.958895 9.110625 -1.098549 -2.091458 -5.360690 22.911940 -1.848525 1.327458 -2.851319 -8.714281 -8.228498 -9.241926 15.107557 -4.931632 11.409571 -0.492991 0.757154 4.713971 0.523411 -4.943037 7.810608 -0.767532 -3.434099 -0.890058 -0.458576 -19.603407 12.646632 0.008057 -21.273266 3.030638 -31.163060 -0.450875 7.965183 -49.854189 -7.432862 7.787267 0.704773 -15.648674 16.498836 -15.030903 4.415243 -2.009021 -7.362923 -2.648353 -8.784223 32.658627 5.943488 4.506662 52.706837 2.420106 10.453739 -5.610772 11.166517 0.048193 10.050757 -4.894561 -1.317487 10.002843 8.482350 -3.192439 
0.000649 -0.000542 0.001484 167.607734 52.891396 -31.084564 3.478466 5.134497 19.451721 1.221977 -11.512533 -2.136478 5.676673 6.455443 -6.537687 -10.717117 9.218433 -1.282419 -2.073191 -5.495365 22.748574 -1.830840 1.163476 -3.042874 -8.547968 -8.431656 -9.171862 14.754151 -4.767176 11.244660 -0.568353 0.829067 4.809784 0.389737 -4.955455 7.728394 -0.832484 -3.471945 -0.811051 -0.325919 -19.690802 12.591974 0.327559 -21.259619 2.939095 -31.101093 -0.353221 7.849949 -49.774484 -7.386463 7.657253 0.771712 -15.874096 16.344104 -14.638672 4.478423 -1.829137 -7.478192 -2.714300 -8.900895 32.300753 5.674948 4.440709 53.106646 1.954396 10.731430 -5.997242 13.041706 0.596567 9.742211 -4.668346 -1.311857 10.076960 8.552868 -3.175876 
0.001463 -0.000580 0.001817 167.619698 53.173570 -30.948541 3.480965 5.100756 19.220190 1.155907 -11.711644 -2.073309 5.450066 6.329252 -6.427402 -10.306382 9.334300 -1.624479 -2.064124 -5.529006 22.542845 -1.820431 1.097975 -2.855044 -8.332135 -8.687118 -9.268404 14.266107 -4.546637 10.930554 -0.600774 0.806075 4.814573 0.248758 -5.003990 7.757625 -0.906388 -3.562678 -0.667348 -0.351113 -19.624215 12.782004 0.531696 -21.007762 2.817612 -30.960279 -0.201734 7.786710 -49.793978 -7.175744 7.447094 0.766774 -16.154539 16.181318 -14.127142 4.543469 -1.799127 -7.657238 -2.770216 -9.103963 31.694405 5.247063 4.387487 53.488895 1.243661 11.148110 -6.474982 16.135288 1.399867 9.262101 -4.362824 -1.532066 10.204326 8.623037 -3.183345 
0.001541 -0.000970 0.002350 167.819153 54.125371 -30.403821 3.432868 5.302281 18.759911 0.995466 -12.633134 -2.168091 4.230936 5.690976 -6.044221 -8.054199 9.910310 -3.290107 -2.195952 -5.574045 22.157180 -1.933953 1.026403 -2.449594 -6.550099 -9.696618 -9.615684 11.137929 -3.445793 9.088567 -0.865023 0.591408 4.006153 -0.138622 -5.592808 7.804660 -1.153538 -4.371747 0.052042 -0.466801 -19.079586 13.871773 1.300790 -19.614135 2.138055 -30.289187 0.753218 7.240770 -49.930458 -6.063607 6.761641 0.468196 -18.512836 16.286993 -11.080036 5.179137 -0.456261 -9.534898 -3.405672 -10.929648 28.761501 1.629392 3.524663 55.231305 -2.725500 12.367773 -10.858807 34.470670 2.216661 6.498978 -2.533655 -3.973098 11.676705 9.229778 -3.634988 
0.002337 -0.001613 0.003416 167.995216 55.320273 -30.022617 3.561748 5.525866 18.296733 0.673967 -13.635913 -2.197257 3.140564 4.924166 -5.355751 -6.008618 10.535218 -4.810390 -2.273938 -5.747373 21.790689 -2.001924 0.816945 -1.883850 -5.639823 -10.549887 -9.870364 8.912345 -3.155219 7.603067 -1.147143 0.014189 3.048777 -0.992434 -6.591827 7.904518 -1.806208 -5.369752 0.613034 -0.900499 -18.525745 16.919764 2.202331 -17.398603 1.882734 -28.868155 1.468180 7.325765 -50.089654 -4.469642 5.848416 -0.059772 -20.507229 16.652293 -9.283179 5.836528 0.098248 -10.961692 -3.752942 -12.859129 24.310461 -1.244442 2.702027 57.225568 -5.390542 13.616947 -13.530728 54.051461 3.866692 6.136959 -0.886065 -7.431310 12.518277 9.602762 -3.718025 
0.010817 -0.001209 0.005288 167.348967 55.187091 -37.226562 4.641628 5.903466 25.347780 2.251892 -14.875039 -2.332094 -2.740511 5.887355 -6.158064 -2.328525 9.818517 -4.090506 -1.860711 -5.580225 29.217546 -2.884686 -0.561772 -2.977154 -2.746925 -8.675282 -7.486619 11.848313 -8.072207 1.423120 -0.791996 1.518620 11.085815 -0.820420 -6.883330 10.361881 -0.670084 -4.099595 0.239343 -2.063019 -18.600833 15.371110 4.150775 -20.113597 0.232096 -26.602930 -2.457616 7.526826 -52.704092 -7.817515 6.188050 1.430186 -16.059333 16.949874 -15.413657 -2.478001 3.626719 -2.670515 0.054629 -7.633996 21.077898 1.882619 1.078001 57.814862 -7.435214 15.061103 -18.376472 65.273459 8.239305 12.930550 2.769783 -5.920941 4.416935 7.511280 0.647348 
0.024536 0.000545 0.007305 166.672043 56.071607 -37.949941 4.063904 4.809884 21.988791 2.239997 -15.080455 3.011892 -1.879196 6.385558 -7.201452 -3.171073 10.585965 -4.417349 -0.833801 -6.041510 28.512911 -3.149485 -1.033348 -2.313719 -4.099298 -8.829308 -7.682343 13.475035 -8.867665 1.304890 -0.775398 2.043135 12.800233 -1.549661 -6.170867 10.112391 -0.699405 -3.420085 0.559412 -2.624996 -18.816810 16.308994 4.469287 -19.799158 -0.176137 -25.027469 -3.473076 7.260487 -53.140739 -8.530399 6.650518 1.719943 -17.626388 17.703062 -15.813293 -2.455124 2.242401 -0.611042 0.878467 -6.067494 18.861109 4.877801 1.412451 58.417269 -4.832559 16.186690 -9.520687 62.730653 16.994550 14.203571 1.967355 -7.164333 2.624859 7.035965 1.475583 
0.042237 0.005650 0.005120 163.739346 59.767207 -40.478706 2.750129 2.636436 14.050397 1.036075 -15.893675 15.003947 -0.678194 5.717689 -7.631760 -4.707157 12.391057 -7.251451 0.053053 -7.359541 27.452768 -2.981548 -2.851208 -1.419259 -5.507012 -9.748428 -7.910755 14.101942 -9.728815 0.646535 -0.009678 2.878446 16.220241 -2.741627 -5.965312 8.957069 -1.086810 -3.067791 1.368837 -3.828298 -18.621633 17.898766 5.450098 -18.175069 -1.372598 -22.611782 -4.870230 7.008957 -53.975951 -10.212927 6.831068 2.247439 -19.993600 19.930974 -14.863643 -2.409929 2.418219 1.199841 1.481244 -4.539089 14.937284 6.218550 1.211945 61.486331 -4.691651 16.660007 -2.947865 64.926650 24.432466 13.098305 2.047646 -9.226410 1.589648 6.966986 2.343093 
0.058906 0.011378 0.001663 156.688757 66.815906 -47.255992 2.041476 0.287198 4.873352 -2.740190 -16.471036 28.077943 -1.016653 2.702323 -5.248306 -5.896688 14.066458 -10.994430 -0.081421 -9.378487 27.092537 -2.534328 -5.887946 -0.515054 -6.612629 -11.919118 -7.859573 13.302563 -9.313430 -0.345102 0.705158 4.228448 20.682140 -3.463258 -6.084126 8.877717 -1.070028 -2.503905 2.096168 -5.186396 -18.682867 18.687612 7.342295 -17.336976 -2.966397 -21.055111 -7.533867 7.292451 -54.542968 -12.237273 6.662542 3.319164 -22.527978 20.264423 -10.861621 -2.334640 1.966542 1.663404 1.237625 -3.612412 12.673107 8.552838 2.249024 64.477140 -6.237900 15.900938 -4.276842 67.625215 23.351753 8.181981 1.980344 -10.046339 2.077017 7.442712 2.231552 
